<svg width="26" height="26" viewBox="0 0 26 26" fill="none" xmlns="http://www.w3.org/2000/svg">
<g clip-path="url(#clip0_15152_73729)">
<circle cx="13" cy="13" r="13" fill="#FF6D16"/>
<g clip-path="url(#clip1_15152_73729)">
<path d="M18.0317 11.5808V7.95847H11.5597C10.8486 7.95847 10.2016 8.24826 9.73229 8.71479C9.26303 9.18132 8.97154 9.82458 8.97154 10.5315L14.5178 16.0232H11.856L7.01441 11.3484L7 10.5331C7 9.2864 7.5125 8.15272 8.33892 7.33112C9.16373 6.50952 10.3041 6 11.5597 6H19.0166H20.0016V6.97923V11.5808H18.0317Z" fill="white"/>
<path opacity="0.72" d="M8.96994 14.7178V18.3401H15.4419C16.153 18.3401 16.8 18.0503 17.2709 17.5838C17.7402 17.1173 18.0317 16.474 18.0317 15.7671L12.4838 10.2754H15.144L19.9856 14.9518L20 15.7687C20 17.017 19.4875 18.1491 18.6611 18.9707C17.8347 19.7923 16.6959 20.3018 15.4403 20.3018H7.98497H7V19.3226V14.721H8.96994V14.7178Z" fill="white"/>
</g>
</g>
<defs>
<clipPath id="clip0_15152_73729">
<rect width="26" height="26" fill="white"/>
</clipPath>
<clipPath id="clip1_15152_73729">
<rect width="13" height="14.3" fill="white" transform="translate(7 6)"/>
</clipPath>
</defs>
</svg>
